<svg id="グループ_38502" data-name="グループ 38502" xmlns="http://www.w3.org/2000/svg" width="40.488" height="40.488" viewBox="0 0 40.488 40.488">
  <g id="グループ_619" data-name="グループ 619" transform="translate(0)">
    <g id="パス_2736" data-name="パス 2736" fill="none">
      <path d="M20.244,0A20.244,20.244,0,1,0,40.488,20.244,20.244,20.244,0,0,0,20.244,0Z" stroke="none"/>
      <path d="M 20.244140625 1 C 17.64576148986816 1 15.12563133239746 1.508670806884766 12.75376129150391 2.511890411376953 C 10.46230125427246 3.481090545654297 8.404151916503906 4.868808746337891 6.636482238769531 6.636482238769531 C 4.868808746337891 8.404151916503906 3.481090545654297 10.46230125427246 2.511890411376953 12.75376129150391 C 1.508670806884766 15.12563133239746 1 17.64576148986816 1 20.244140625 C 1 22.84251976013184 1.508670806884766 25.36265182495117 2.511890411376953 27.73451995849609 C 3.481090545654297 30.02598190307617 4.868808746337891 32.08412933349609 6.636482238769531 33.85179901123047 C 8.404151916503906 35.61946868896484 10.46230125427246 37.0071907043457 12.75376129150391 37.97639083862305 C 15.12563133239746 38.97961044311523 17.64576148986816 39.48828125 20.244140625 39.48828125 C 22.84251976013184 39.48828125 25.36265182495117 38.97961044311523 27.73451995849609 37.97639083862305 C 30.02598190307617 37.0071907043457 32.08412933349609 35.61946868896484 33.85179901123047 33.85179901123047 C 35.61946868896484 32.08412933349609 37.0071907043457 30.02598190307617 37.97639083862305 27.73451995849609 C 38.97961044311523 25.36265182495117 39.48828125 22.84251976013184 39.48828125 20.244140625 C 39.48828125 17.64576148986816 38.97961044311523 15.12563133239746 37.97639083862305 12.75376129150391 C 37.0071907043457 10.46230125427246 35.61946868896484 8.404151916503906 33.85179901123047 6.636482238769531 C 32.08412933349609 4.868808746337891 30.02598190307617 3.481090545654297 27.73451995849609 2.511890411376953 C 25.36265182495117 1.508670806884766 22.84251976013184 1 20.244140625 1 M 20.244140625 0 C 31.4246711730957 0 40.48828125 9.063610076904297 40.48828125 20.244140625 C 40.48828125 31.4246711730957 31.4246711730957 40.48828125 20.244140625 40.48828125 C 9.063610076904297 40.48828125 0 31.4246711730957 0 20.244140625 C 0 9.063610076904297 9.063610076904297 0 20.244140625 0 Z" stroke="none" fill="#fff"/>
    </g>
  </g>
  <path id="パス_2735" data-name="パス 2735" d="M-15629.377,5826.3l4.933,4.932-4.933,4.932" transform="translate(15647.881 -5810.991)" fill="none" stroke="#fff" stroke-linecap="round" stroke-linejoin="round" stroke-width="2"/>
</svg>
