<svg xmlns="http://www.w3.org/2000/svg" width="72.039" height="34.892" viewBox="0 0 72.039 34.892">
  <path id="パス_6009" data-name="パス 6009" d="M2.035.185a1.825,1.825,0,0,1-.759-.13Q1-.074,1-.259A.468.468,0,0,1,1.35-.722q.352-.13.462-.166a5.667,5.667,0,0,0,2.22-.869A2.082,2.082,0,0,0,4.81-3.552V-20.72a3.49,3.49,0,0,0-.185-1.314,1.2,1.2,0,0,0-.666-.629,6.388,6.388,0,0,0-1.406-.351q-1.221-.222-1.221-.74,0-.222.3-.314a2.674,2.674,0,0,1,.777-.092q1,0,1.609.037t1.166.056q.555.019,1.369.019.925,0,1.591-.019t1.369-.056q.7-.037,1.7-.037a2.674,2.674,0,0,1,.777.092q.3.092.3.314a.527.527,0,0,1-.3.444,2.7,2.7,0,0,1-.925.3,15.009,15.009,0,0,0-2.331.611,1.38,1.38,0,0,0-.962,1.425V-3.552a2.423,2.423,0,0,0,.518,1.7,3.345,3.345,0,0,0,2.331.555h4.588a4.561,4.561,0,0,0,1.757-.314,4.005,4.005,0,0,0,1.128-.648,6.45,6.45,0,0,0,1.091-1.128,11.133,11.133,0,0,0,.833-1.5,4.706,4.706,0,0,1,.314-.666q.241-.444.5-.444a.356.356,0,0,1,.333.222.985.985,0,0,1,.111.444.3.3,0,0,1-.018.092.3.3,0,0,0-.018.092q-.259.962-.462,1.739t-.333,1.48q-.129.7-.2,1.48A1.449,1.449,0,0,1,20.11,0a.391.391,0,0,1-.389.185q-1.85,0-3.552-.037T12.895.093Q11.322.074,9.879.037T7.03,0q-.925,0-2.09.037T2.9.13ZM30.266.518a7.333,7.333,0,0,1-3.737-.962,7.164,7.164,0,0,1-2.646-2.645,7.468,7.468,0,0,1-.98-3.83,7.887,7.887,0,0,1,.611-3.034,9.219,9.219,0,0,1,1.72-2.7,8.509,8.509,0,0,1,2.59-1.942,7.165,7.165,0,0,1,3.182-.722,7.349,7.349,0,0,1,3.866,1.036,7.918,7.918,0,0,1,2.738,2.72,6.985,6.985,0,0,1,1.017,3.681,9.126,9.126,0,0,1-.943,4.07A7.743,7.743,0,0,1,34.891-.684,8.32,8.32,0,0,1,30.266.518Zm.777-1.11A5.138,5.138,0,0,0,33.3-1.073a3.386,3.386,0,0,0,1.554-1.554A6.035,6.035,0,0,0,35.446-4.7a19.118,19.118,0,0,0,.148-2.294,9.27,9.27,0,0,0-.648-3.423,7.05,7.05,0,0,0-1.813-2.7,3.973,3.973,0,0,0-2.757-1.054,4.847,4.847,0,0,0-1.794.314,3.542,3.542,0,0,0-1.462,1.166,4.805,4.805,0,0,0-.962,2.257,16.178,16.178,0,0,0-.222,2.664A9.139,9.139,0,0,0,26.6-4.311a7.163,7.163,0,0,0,1.813,2.683A3.807,3.807,0,0,0,31.043-.592Zm16.1,11.322a8.975,8.975,0,0,1-4.977-1.2A3.7,3.7,0,0,1,40.33,6.29a4,4,0,0,1,.3-1.628,2.938,2.938,0,0,1,.925-1.147q.518-.444,1.388-1.128T44.733.962l1.554.074a8.644,8.644,0,0,0-2.479,2.183,4.375,4.375,0,0,0-.7,2.516,3.059,3.059,0,0,0,1.313,2.5A5.127,5.127,0,0,0,47.656,9.25a5.713,5.713,0,0,0,3.515-1,4.734,4.734,0,0,0,1.443-1.832,5.654,5.654,0,0,0,.518-2.386,1.771,1.771,0,0,0-.573-1.351,4.266,4.266,0,0,0-1.795-.869,15.872,15.872,0,0,0-3.182-.444A14.581,14.581,0,0,1,42.754.444,2.183,2.183,0,0,1,41.4-1.628a1.235,1.235,0,0,1,.2-.684A3.229,3.229,0,0,1,42.254-3q.851-.666,1.258-.98a5.013,5.013,0,0,0,.611-.536,2.912,2.912,0,0,0,.389-.555l1.258.629a4.128,4.128,0,0,0-1.369.8,1.345,1.345,0,0,0-.555.907,1.105,1.105,0,0,0,.555.906,4.451,4.451,0,0,0,1.628.61,20.415,20.415,0,0,0,2.627.333A12.169,12.169,0,0,1,53.724.222a2.879,2.879,0,0,1,1.665,2.627,6.071,6.071,0,0,1-.722,2.831,9.839,9.839,0,0,1-1.905,2.534,9.685,9.685,0,0,1-2.646,1.832A6.955,6.955,0,0,1,47.138,10.73Zm.444-15.947a2.72,2.72,0,0,0,2.331-1.424,6.358,6.358,0,0,0,.925-3.534,4.247,4.247,0,0,0-.5-2.016,4.331,4.331,0,0,0-1.3-1.517,2.883,2.883,0,0,0-1.72-.574,2.527,2.527,0,0,0-1.61.611A4.464,4.464,0,0,0,44.493-12.1,4.8,4.8,0,0,0,44.03-9.99,5.852,5.852,0,0,0,44.511-7.6a4.477,4.477,0,0,0,1.295,1.739A2.792,2.792,0,0,0,47.582-5.217Zm-.222,1.3A5.761,5.761,0,0,1,44.474-4.7a6.626,6.626,0,0,1-2.238-2.053,4.859,4.859,0,0,1-.869-2.793,5.241,5.241,0,0,1,.906-3.053,6.228,6.228,0,0,1,2.387-2.053,6.939,6.939,0,0,1,3.145-.74,5.677,5.677,0,0,1,1.868.278q.8.277,1.572.5a8.65,8.65,0,0,0,1.406.315,10.072,10.072,0,0,0,1.073.056q.444,0,1.11-.056t.925-.056q.481,0,.481.555a1.04,1.04,0,0,1-.37.7.507.507,0,0,1-.3.185h-1q-1,0-1.11.3-.037.148-.092.425t-.093.611a6.027,6.027,0,0,0-.037.666,7.524,7.524,0,0,1-.814,3.478,7.038,7.038,0,0,1-2.146,2.553A4.884,4.884,0,0,1,47.36-3.922ZM64.676.518a7.333,7.333,0,0,1-3.737-.962,7.164,7.164,0,0,1-2.646-2.645,7.468,7.468,0,0,1-.981-3.83,7.887,7.887,0,0,1,.611-3.034,9.219,9.219,0,0,1,1.721-2.7,8.509,8.509,0,0,1,2.59-1.942,7.165,7.165,0,0,1,3.182-.722,7.349,7.349,0,0,1,3.867,1.036,7.918,7.918,0,0,1,2.738,2.72,6.985,6.985,0,0,1,1.018,3.681,9.125,9.125,0,0,1-.944,4.07A7.743,7.743,0,0,1,69.3-.684,8.32,8.32,0,0,1,64.676.518Zm.777-1.11a5.138,5.138,0,0,0,2.257-.481,3.386,3.386,0,0,0,1.554-1.554A6.036,6.036,0,0,0,69.856-4.7,19.119,19.119,0,0,0,70-6.993a9.27,9.27,0,0,0-.647-3.423,7.05,7.05,0,0,0-1.813-2.7,3.973,3.973,0,0,0-2.757-1.054,4.847,4.847,0,0,0-1.795.314,3.542,3.542,0,0,0-1.461,1.166,4.805,4.805,0,0,0-.962,2.257,16.178,16.178,0,0,0-.222,2.664,9.139,9.139,0,0,0,.666,3.459,7.163,7.163,0,0,0,1.813,2.683A3.807,3.807,0,0,0,65.453-.592Z" transform="translate(-0.998 24.161)" fill="#333"/>
</svg>
